<svg height="18" viewBox="0 0 18 18" width="18" xmlns="http://www.w3.org/2000/svg" xmlns:xlink="http://www.w3.org/1999/xlink"><mask id="a" fill="#fff"><path d="m7.49999937 14.9171282c1.6999997 0 3.29999993-.5966855 4.49999973-1.4917128l4.2999989 4.2762426c.2000008.1988959.5.2983418.7000008.2983418.2000007 0 .5-.0994479.7000007-.2983418.3999995-.3977896.3999995-.9944752 0-1.3922649l-4.2000005-4.3756906c1-1.292818 1.4999999-2.7845308 1.4999999-4.47513848 0-4.07734834-3.3999995-7.4585642-7.49999953-7.4585642-4.10000014 0-7.49999955 3.38121586-7.49999955 7.4585642 0 4.07734868 3.39999989 7.45856418 7.49999955 7.45856418zm0-12.92817793c2.99999983 0 5.49999963 2.48618807 5.49999963 5.46961375s-2.4999998 5.46961378-5.49999963 5.46961378c-2.99999982 0-5.49999967-2.4861881-5.49999967-5.46961378s2.49999985-5.46961375 5.49999967-5.46961375z" fill="#fff" fill-rule="evenodd"/></mask><g fill="#a5b2bd" fill-rule="evenodd" mask="url(#a)"><path d="m0 0h24v24h-24z" transform="translate(-3 -3)"/></g></svg>