<svg width="24" height="24" viewBox="0 0 24 24" xmlns="http://www.w3.org/2000/svg" xmlns:xlink="http://www.w3.org/1999/xlink">
    <title>
        Artboard
    </title>
    <defs>
        <path d="M16 11c0 .552-.448 1-1 1h-1V9c0-.553-.447-1-1-1H5c-.553 0-1 .447-1 1v3H3c-.552 0-1-.448-1-1V7c0-.552.448-1 1-1h12c.552 0 1 .448 1 1v4zM6 16h6v-6H6v6zM5 3c0-.552.448-1 1-1h6c.552 0 1 .448 1 1v1H5V3zm10 1V3c0-1.654-1.346-3-3-3H6C4.346 0 3 1.346 3 3v1C1.346 4 0 5.346 0 7v4c0 1.654 1.346 3 3 3h1v3c0 .553.447 1 1 1h8c.553 0 1-.447 1-1v-3h1c1.654 0 3-1.346 3-3V7c0-1.654-1.346-3-3-3z" id="a"/>
    </defs>
    <g transform="translate(3 3)" fill="none" fill-rule="evenodd">
        <mask id="b" fill="#fff">
            <use xlink:href="#a"/>
        </mask>
        <g mask="url(#b)" fill="#A5B2BD">
            <path d="M-3-3h24v24H-3z"/>
        </g>
    </g>
</svg>
